<svg width="120" height="120" viewBox="0 0 120 120" fill="none" xmlns="http://www.w3.org/2000/svg">
<path d="M94.9526 95H95M94.9526 95C91.8391 98.0874 86.1966 97.3185 82.2397 97.3185C77.3826 97.3185 75.0436 98.2686 71.5772 101.735C68.6255 104.687 64.6687 110 60.0001 110C55.3315 110 51.3746 104.687 48.4229 101.735C44.9564 98.2686 42.6175 97.3185 37.7603 97.3185C33.8034 97.3185 28.1609 98.0874 25.0475 95C21.909 91.8879 22.6814 86.222 22.6814 82.2396C22.6814 77.2071 21.5808 74.893 17.9969 71.3092C12.6657 65.9781 10.0001 63.3122 10 59.9999C10 56.6876 12.6656 54.022 17.9968 48.6908C21.196 45.4916 22.6814 42.3214 22.6814 37.7603C22.6814 33.8033 21.9125 28.1607 25 25.0472C28.1121 21.9089 33.778 22.6813 37.7604 22.6813C42.3214 22.6813 45.4916 21.196 48.6908 17.9968C54.022 12.6656 56.6876 10 60 10C63.3124 10 65.978 12.6656 71.3093 17.9968C74.5077 21.1953 77.6773 22.6813 82.2396 22.6813C86.1967 22.6813 91.8393 21.9123 94.9528 25C98.091 28.1122 97.3186 33.778 97.3186 37.7603C97.3186 42.7929 98.4194 45.1069 102.003 48.6908C107.334 54.022 110 56.6876 110 59.9999C110 63.3122 107.334 65.9781 102.003 71.3092C98.4192 74.8929 97.3186 77.2071 97.3186 82.2396C97.3186 86.222 98.091 91.8879 94.9526 95Z" stroke="#008D5C" stroke-width="5"/>
<path d="M45 64.4643L54 72.5L75 47.5" stroke="#008D5C" stroke-width="5" stroke-linecap="round" stroke-linejoin="round"/>
</svg>
